<?xml version="1.0" encoding="utf-8"?>
<!-- Generator: Adobe Illustrator 24.0.1, SVG Export Plug-In . SVG Version: 6.00 Build 0)  -->
<svg version="1.1" id="Layer_1" xmlns="http://www.w3.org/2000/svg" xmlns:xlink="http://www.w3.org/1999/xlink" x="0px" y="0px"
	 viewBox="0 0 9181 2960" style="enable-background:new 0 0 9181 2960;" xml:space="preserve">
<style type="text/css">
	.st0{opacity:0.05;fill:#FFFFFF;}
</style>
<path class="st0" d="M 8750.76,2412.50
           C 8724.89,2416.62 8704.39,2426.88 8686.76,2444.50
             8673.64,2457.62 8663.64,2475.12 8658.26,2494.38
             8655.64,2504.00 8655.51,2506.75 8655.01,2569.00
             8655.01,2569.00 8654.64,2633.75 8654.64,2633.75
             8654.64,2633.75 8677.14,2633.75 8677.14,2633.75
             8677.14,2633.75 8699.76,2633.75 8699.76,2633.75
             8699.76,2633.75 8699.76,2574.00 8699.76,2574.00
             8699.76,2508.50 8700.01,2506.38 8707.39,2492.50
             8720.89,2467.12 8749.39,2452.62 8776.76,2457.38
             8802.14,2461.75 8823.76,2481.88 8830.38,2507.12
             8831.88,2513.00 8832.26,2525.12 8832.26,2574.00
             8832.26,2574.00 8832.26,2633.75 8832.26,2633.75
             8832.26,2633.75 8854.76,2633.75 8854.76,2633.75
             8854.76,2633.75 8877.26,2633.75 8877.26,2633.75
             8877.26,2633.75 8877.26,2573.38 8877.26,2573.38
             8877.26,2511.50 8876.76,2503.38 8872.13,2488.75
             8860.26,2452.00 8830.38,2424.00 8793.26,2415.00
             8781.14,2412.12 8761.01,2410.88 8750.76,2412.50 Z
           M 8528.52,2522.50
           C 8528.52,2522.50 8528.52,2633.75 8528.52,2633.75
             8528.52,2633.75 8551.02,2633.75 8551.02,2633.75
             8551.02,2633.75 8573.52,2633.75 8573.52,2633.75
             8573.52,2633.75 8573.52,2522.50 8573.52,2522.50
             8573.52,2522.50 8573.52,2411.25 8573.52,2411.25
             8573.52,2411.25 8551.02,2411.25 8551.02,2411.25
             8551.02,2411.25 8528.52,2411.25 8528.52,2411.25
             8528.52,2411.25 8528.52,2522.50 8528.52,2522.50 Z
           M 7982.91,2412.00
           C 7954.03,2416.25 7935.16,2425.50 7916.03,2444.88
             7902.66,2458.38 7895.41,2469.88 7889.66,2486.62
             7884.16,2502.88 7883.54,2511.75 7883.54,2575.12
             7883.54,2575.12 7883.54,2633.75 7883.54,2633.75
             7883.54,2633.75 7906.03,2633.75 7906.03,2633.75
             7906.03,2633.75 7928.53,2633.75 7928.53,2633.75
             7928.53,2633.75 7928.53,2575.00 7928.53,2575.00
             7928.53,2537.38 7929.03,2514.00 7929.91,2509.75
             7930.66,2506.12 7933.16,2499.12 7935.41,2494.38
             7951.66,2460.50 7992.28,2446.75 8025.28,2464.00
             8035.03,2469.12 8049.28,2483.38 8053.91,2492.62
             8060.91,2506.62 8061.03,2508.00 8061.03,2573.38
             8061.03,2573.38 8061.03,2633.75 8061.03,2633.75
             8061.03,2633.75 8083.65,2633.75 8083.65,2633.75
             8083.65,2633.75 8106.15,2633.75 8106.15,2633.75
             8106.15,2633.75 8105.78,2567.75 8105.78,2567.75
             8105.28,2503.50 8105.15,2501.62 8102.40,2492.50
             8095.65,2470.25 8080.90,2448.12 8064.16,2435.25
             8053.16,2426.88 8035.78,2418.25 8023.03,2415.00
             8013.53,2412.62 7990.66,2410.88 7982.91,2412.00 Z
           M 7662.92,2412.50
           C 7617.29,2419.38 7580.04,2454.25 7570.17,2499.25
             7567.17,2512.75 7567.54,2535.50 7570.92,2549.38
             7581.17,2591.62 7614.17,2623.25 7657.29,2632.00
             7671.29,2634.75 7696.42,2633.88 7709.54,2630.12
             7718.54,2627.50 7731.04,2621.88 7739.79,2616.50
             7742.16,2615.00 7744.54,2613.75 7745.16,2613.75
             7745.66,2613.75 7746.04,2618.25 7746.04,2623.75
             7746.04,2623.75 7746.04,2633.75 7746.04,2633.75
             7746.04,2633.75 7767.91,2633.75 7767.91,2633.75
             7767.91,2633.75 7789.91,2633.75 7789.91,2633.75
             7789.91,2633.75 7789.54,2567.12 7789.54,2567.12
             7789.54,2567.12 7789.16,2500.62 7789.16,2500.62
             7789.16,2500.62 7785.04,2488.75 7785.04,2488.75
             7774.79,2458.62 7756.16,2437.00 7729.16,2423.62
             7722.29,2420.25 7712.29,2416.38 7706.79,2415.00
             7695.42,2412.12 7673.67,2410.88 7662.92,2412.50 Z
           M 7693.29,2458.12
           C 7710.04,2462.12 7725.16,2473.00 7735.04,2488.00
             7752.29,2514.62 7747.29,2550.38 7723.16,2572.00
             7715.91,2578.50 7703.42,2585.12 7694.29,2587.38
             7686.54,2589.25 7672.29,2589.38 7664.17,2587.50
             7643.04,2582.75 7624.29,2565.75 7616.54,2544.25
             7599.17,2496.62 7643.92,2446.50 7693.29,2458.12 Z
           M 6528.70,2412.62
           C 6502.95,2415.88 6475.70,2431.00 6459.57,2450.50
             6442.07,2471.62 6434.95,2490.75 6433.95,2518.25
             6432.95,2544.25 6437.82,2563.00 6451.07,2583.62
             6458.32,2595.00 6474.70,2611.12 6485.07,2617.25
             6496.45,2624.00 6510.82,2629.62 6522.20,2632.00
             6536.32,2634.75 6561.45,2633.88 6574.82,2630.00
             6636.07,2612.50 6669.94,2547.75 6649.69,2486.88
             6644.19,2470.38 6636.19,2457.62 6622.94,2444.38
             6597.57,2419.00 6564.70,2408.00 6528.70,2412.62 Z
           M 6566.20,2460.38
           C 6595.82,2471.12 6614.69,2502.00 6610.07,2532.00
             6605.95,2558.25 6584.70,2581.62 6559.82,2587.38
             6551.32,2589.38 6534.95,2589.00 6527.20,2586.75
             6504.07,2580.00 6485.07,2560.25 6479.82,2537.50
             6471.70,2503.00 6494.20,2467.12 6529.57,2458.12
             6539.70,2455.50 6555.70,2456.50 6566.20,2460.38 Z
           M 5916.34,2475.88
           C 5916.96,2549.38 5916.96,2549.38 5927.84,2571.88
             5943.21,2603.75 5971.71,2625.50 6006.71,2632.12
             6020.34,2634.75 6045.84,2633.75 6057.96,2630.12
             6067.46,2627.25 6082.96,2620.25 6088.58,2616.25
             6090.46,2614.88 6092.46,2613.75 6092.83,2613.75
             6093.21,2613.75 6093.58,2619.62 6093.58,2626.75
             6093.58,2648.12 6086.96,2663.88 6072.33,2677.62
             6057.84,2691.25 6037.96,2697.75 6019.34,2695.12
             6002.96,2692.88 5985.34,2683.00 5976.71,2671.38
             5976.71,2671.38 5972.96,2666.25 5972.96,2666.25
             5972.96,2666.25 5947.71,2666.25 5947.71,2666.25
             5947.71,2666.25 5922.34,2666.25 5922.34,2666.25
             5922.34,2666.25 5924.96,2672.75 5924.96,2672.75
             5931.34,2689.12 5946.96,2708.88 5961.71,2719.38
             5981.46,2733.38 6002.46,2740.12 6026.71,2740.12
             6043.71,2740.25 6054.59,2738.25 6069.21,2732.62
             6102.46,2719.88 6128.96,2688.50 6136.21,2653.25
             6138.46,2642.62 6138.58,2634.62 6138.58,2526.50
             6138.58,2526.50 6138.58,2411.25 6138.58,2411.25
             6138.58,2411.25 6116.08,2411.25 6116.08,2411.25
             6116.08,2411.25 6093.58,2411.25 6093.58,2411.25
             6093.58,2411.25 6093.58,2472.25 6093.58,2472.25
             6093.58,2524.50 6093.33,2534.25 6091.58,2540.12
             6084.96,2562.50 6067.46,2580.12 6044.84,2586.75
             6035.09,2589.75 6018.71,2589.50 6008.46,2586.38
             5986.21,2579.50 5966.59,2557.75 5962.34,2535.12
             5961.59,2531.25 5961.09,2504.25 5961.09,2469.88
             5961.09,2469.88 5961.09,2411.25 5961.09,2411.25
             5961.09,2411.25 5938.46,2411.25 5938.46,2411.25
             5938.46,2411.25 5915.96,2411.25 5915.96,2411.25
             5915.96,2411.25 5916.34,2475.88 5916.34,2475.88 Z
           M 5721.09,2412.00
           C 5706.09,2414.62 5701.84,2415.75 5692.47,2419.00
             5663.35,2429.62 5637.60,2456.50 5627.60,2486.62
             5621.85,2504.00 5621.10,2513.75 5621.10,2576.50
             5621.10,2576.50 5621.10,2633.75 5621.10,2633.75
             5621.10,2633.75 5643.60,2633.75 5643.60,2633.75
             5643.60,2633.75 5665.97,2633.75 5665.97,2633.75
             5665.97,2633.75 5666.35,2572.12 5666.35,2572.12
             5666.35,2572.12 5666.72,2510.62 5666.72,2510.62
             5666.72,2510.62 5669.97,2501.62 5669.97,2501.62
             5681.22,2471.12 5712.34,2452.12 5742.72,2457.25
             5754.22,2459.25 5767.47,2465.50 5775.59,2472.88
             5779.22,2476.12 5782.59,2478.75 5783.22,2478.75
             5784.09,2478.75 5805.47,2461.00 5817.22,2450.50
             5817.59,2450.12 5815.59,2447.62 5812.84,2444.88
             5800.22,2431.88 5778.97,2419.62 5760.59,2415.00
             5751.22,2412.62 5727.59,2410.88 5721.09,2412.00 Z
           M 5403.73,2412.62
           C 5377.98,2415.88 5350.73,2431.00 5334.60,2450.50
             5317.11,2471.62 5309.98,2490.75 5308.98,2518.25
             5307.98,2544.25 5312.86,2563.00 5326.10,2583.62
             5333.35,2595.00 5349.73,2611.12 5360.10,2617.25
             5371.48,2624.00 5385.85,2629.62 5397.23,2632.00
             5411.35,2634.75 5436.48,2633.88 5449.85,2630.00
             5511.10,2612.50 5544.97,2547.75 5524.72,2486.88
             5519.22,2470.38 5511.22,2457.62 5497.98,2444.38
             5472.60,2419.00 5439.73,2408.00 5403.73,2412.62 Z
           M 5441.23,2460.38
           C 5470.85,2471.12 5489.73,2502.00 5485.10,2532.00
             5480.98,2558.25 5459.73,2581.62 5434.85,2587.38
             5426.35,2589.38 5409.98,2589.00 5402.23,2586.75
             5379.10,2580.00 5360.10,2560.25 5354.85,2537.50
             5346.73,2503.00 5369.23,2467.12 5404.60,2458.12
             5414.73,2455.50 5430.73,2456.50 5441.23,2460.38 Z
           M 4352.51,2412.62
           C 4326.26,2416.00 4298.63,2431.38 4282.01,2451.88
             4273.63,2462.25 4266.88,2474.75 4262.13,2488.75
             4258.26,2500.25 4258.13,2501.38 4258.01,2521.88
             4258.01,2540.50 4258.38,2544.38 4260.88,2553.12
             4271.76,2590.50 4299.76,2618.75 4337.63,2630.25
             4346.51,2633.00 4348.63,2633.00 4413.38,2633.50
             4413.38,2633.50 4479.88,2633.88 4479.88,2633.88
             4479.88,2633.88 4479.88,2612.00 4479.88,2612.00
             4479.88,2612.00 4479.88,2590.25 4479.88,2590.25
             4479.88,2590.25 4419.00,2589.62 4419.00,2589.62
             4352.01,2589.12 4352.51,2589.12 4337.26,2581.12
             4327.38,2576.00 4314.26,2563.00 4309.51,2553.75
             4309.51,2553.75 4306.01,2546.88 4306.01,2546.88
             4306.01,2546.88 4391.63,2546.50 4391.63,2546.50
             4391.63,2546.50 4477.25,2546.25 4477.25,2546.25
             4477.25,2546.25 4478.25,2540.25 4478.25,2540.25
             4479.88,2530.88 4479.13,2507.62 4476.88,2498.25
             4463.50,2441.38 4410.75,2405.12 4352.51,2412.62 Z
           M 4390.26,2460.50
           C 4404.51,2465.88 4416.00,2475.12 4424.25,2488.00
             4426.63,2491.62 4428.88,2496.12 4429.38,2498.00
             4429.38,2498.00 4430.13,2501.25 4430.13,2501.25
             4430.13,2501.25 4368.13,2501.25 4368.13,2501.25
             4317.88,2501.25 4306.13,2501.00 4306.13,2499.62
             4306.13,2496.38 4315.13,2483.00 4322.13,2476.00
             4330.01,2467.88 4342.26,2460.88 4353.13,2458.12
             4363.76,2455.50 4379.51,2456.50 4390.26,2460.50 Z
           M 3323.41,2412.50
           C 3284.29,2418.75 3254.66,2440.38 3238.54,2474.38
             3227.91,2496.88 3228.16,2494.50 3227.66,2568.38
             3227.66,2568.38 3227.29,2633.75 3227.29,2633.75
             3227.29,2633.75 3249.91,2633.75 3249.91,2633.75
             3249.91,2633.75 3272.41,2633.75 3272.41,2633.75
             3272.41,2633.75 3272.41,2574.00 3272.41,2574.00
             3272.41,2508.38 3272.54,2507.12 3280.04,2492.25
             3282.41,2487.50 3287.29,2481.12 3292.29,2476.12
             3317.41,2451.00 3355.66,2449.88 3382.66,2473.62
             3385.78,2476.50 3388.78,2478.75 3389.28,2478.75
             3390.66,2478.75 3422.41,2451.12 3422.41,2450.00
             3422.41,2448.25 3410.91,2437.50 3402.78,2431.75
             3392.66,2424.38 3378.66,2418.12 3365.91,2415.00
             3353.78,2412.12 3333.66,2410.88 3323.41,2412.50 Z
           M 3024.29,2412.50
           C 2978.67,2419.38 2941.42,2454.25 2931.55,2499.25
             2928.55,2512.75 2928.92,2535.50 2932.30,2549.38
             2942.54,2591.62 2975.54,2623.25 3018.67,2632.00
             3032.79,2634.75 3057.79,2633.88 3071.17,2630.00
             3109.42,2619.00 3138.16,2589.38 3148.16,2550.50
             3151.04,2539.25 3151.29,2536.38 3150.79,2519.38
             3150.29,2502.50 3149.91,2499.38 3146.41,2488.75
             3136.54,2459.00 3117.67,2437.00 3090.54,2423.62
             3083.67,2420.25 3073.67,2416.38 3068.17,2415.00
             3056.79,2412.12 3035.04,2410.88 3024.29,2412.50 Z
           M 3054.67,2458.12
           C 3071.42,2462.12 3086.54,2473.00 3096.42,2488.00
             3113.67,2514.62 3108.67,2550.38 3084.54,2572.00
             3077.29,2578.50 3066.17,2584.50 3056.79,2587.00
             3049.42,2589.00 3032.79,2589.25 3024.92,2587.38
             2992.67,2580.00 2969.42,2545.38 2974.92,2512.88
             2981.17,2475.12 3018.42,2449.62 3054.67,2458.12 Z
           M 3753.40,2333.50
           C 3753.40,2333.50 3731.27,2345.62 3731.27,2345.62
             3731.27,2345.62 3731.15,2489.62 3731.15,2489.62
             3731.15,2489.62 3731.15,2633.75 3731.15,2633.75
             3731.15,2633.75 3753.65,2633.75 3753.65,2633.75
             3753.65,2633.75 3776.15,2633.75 3776.15,2633.75
             3776.15,2633.75 3776.15,2545.00 3776.15,2545.00
             3776.15,2545.00 3776.15,2456.25 3776.15,2456.25
             3776.15,2456.25 3813.65,2456.25 3813.65,2456.25
             3813.65,2456.25 3851.15,2456.25 3851.15,2456.25
             3851.15,2456.25 3851.15,2433.75 3851.15,2433.75
             3851.15,2433.75 3851.15,2411.25 3851.15,2411.25
             3851.15,2411.25 3813.65,2411.25 3813.65,2411.25
             3813.65,2411.25 3776.15,2411.25 3776.15,2411.25
             3776.15,2411.25 3775.90,2366.25 3775.90,2366.25
             3775.90,2366.25 3775.52,2321.38 3775.52,2321.38
             3775.52,2321.38 3753.40,2333.50 3753.40,2333.50 Z
           M 9137.25,2366.88
           C 9137.25,2403.00 9136.88,2432.50 9136.50,2432.50
             9136.13,2432.50 9134.13,2431.38 9132.25,2430.00
             9125.75,2425.38 9108.00,2417.50 9097.88,2414.88
             9085.75,2411.62 9059.63,2411.00 9047.88,2413.62
             9008.50,2422.38 8977.13,2450.12 8965.01,2486.75
             8944.63,2548.00 8978.26,2612.50 9039.75,2630.00
             9053.13,2633.88 9078.25,2634.75 9092.38,2632.00
             9112.50,2627.88 9131.13,2618.25 9146.38,2603.75
             9161.13,2589.88 9171.50,2573.12 9177.50,2553.50
             9177.50,2553.50 9180.38,2544.38 9180.38,2544.38
             9180.38,2544.38 9180.75,2422.75 9180.75,2422.75
             9180.75,2422.75 9181.12,2301.25 9181.12,2301.25
             9181.12,2301.25 9159.13,2301.25 9159.13,2301.25
             9159.13,2301.25 9137.25,2301.25 9137.25,2301.25
             9137.25,2301.25 9137.25,2366.88 9137.25,2366.88 Z
           M 9084.50,2458.12
           C 9113.88,2465.00 9135.88,2491.88 9136.25,2521.25
             9136.50,2539.62 9129.75,2556.25 9116.63,2569.38
             9103.63,2582.38 9088.00,2588.88 9069.50,2588.88
             9050.63,2588.88 9035.00,2581.75 9021.50,2567.12
             9012.88,2557.88 9006.75,2545.50 9004.75,2533.50
             8997.01,2488.12 9039.88,2447.62 9084.50,2458.12 Z
           M 8233.90,2313.25
           C 8233.90,2313.25 8212.28,2325.12 8212.28,2325.12
             8212.28,2325.12 8212.28,2479.50 8212.28,2479.50
             8212.28,2479.50 8212.28,2633.75 8212.28,2633.75
             8212.28,2633.75 8234.78,2633.75 8234.78,2633.75
             8234.78,2633.75 8257.28,2633.75 8257.28,2633.75
             8257.28,2633.75 8257.28,2592.75 8257.28,2592.75
             8257.28,2592.75 8257.40,2551.88 8257.40,2551.88
             8257.40,2551.88 8275.15,2538.00 8275.15,2538.00
             8275.15,2538.00 8292.90,2524.12 8292.90,2524.12
             8292.90,2524.12 8332.27,2578.62 8332.27,2578.62
             8332.27,2578.62 8371.65,2633.12 8371.65,2633.12
             8371.65,2633.12 8399.52,2633.50 8399.52,2633.50
             8414.77,2633.62 8427.27,2633.50 8427.27,2633.12
             8427.27,2632.75 8405.40,2602.12 8378.52,2565.00
             8351.77,2528.00 8329.77,2497.12 8329.77,2496.50
             8329.77,2495.88 8353.77,2476.62 8383.15,2453.62
             8383.15,2453.62 8436.52,2411.88 8436.52,2411.88
             8436.52,2411.88 8400.02,2411.50 8400.02,2411.50
             8400.02,2411.50 8363.52,2411.25 8363.52,2411.25
             8363.52,2411.25 8310.77,2452.62 8310.77,2452.62
             8310.77,2452.62 8257.90,2493.88 8257.90,2493.88
             8257.90,2493.88 8257.53,2397.62 8257.53,2397.62
             8257.40,2344.62 8256.90,2301.25 8256.28,2301.25
             8255.78,2301.25 8245.65,2306.62 8233.90,2313.25 Z
           M 7151.06,2467.62
           C 7151.06,2467.62 7151.06,2634.00 7151.06,2634.00
             7151.06,2634.00 7162.05,2628.12 7162.05,2628.12
             7168.05,2624.88 7177.80,2619.38 7183.80,2616.00
             7183.80,2616.00 7194.80,2609.88 7194.80,2609.88
             7194.80,2609.88 7195.05,2495.38 7195.05,2495.38
             7195.05,2495.38 7195.43,2381.00 7195.43,2381.00
             7195.43,2381.00 7253.05,2465.12 7253.05,2465.12
             7284.68,2511.38 7311.18,2549.38 7311.80,2549.62
             7312.43,2549.75 7337.43,2512.50 7367.30,2466.75
             7397.17,2421.00 7422.05,2383.25 7422.55,2383.00
             7423.17,2382.62 7423.55,2433.50 7423.55,2496.00
             7423.55,2496.00 7423.55,2609.75 7423.55,2609.75
             7423.55,2609.75 7445.30,2621.75 7445.30,2621.75
             7457.17,2628.38 7467.30,2633.75 7467.80,2633.75
             7468.17,2633.75 7468.55,2558.88 7468.55,2467.50
             7468.55,2467.50 7468.55,2301.25 7468.55,2301.25
             7468.55,2301.25 7445.67,2301.25 7445.67,2301.25
             7445.67,2301.25 7422.80,2301.25 7422.80,2301.25
             7422.80,2301.25 7368.05,2385.00 7368.05,2385.00
             7337.93,2431.12 7312.93,2469.00 7312.43,2469.38
             7311.80,2469.62 7285.55,2432.12 7253.93,2385.88
             7253.93,2385.88 7196.43,2301.88 7196.43,2301.88
             7196.43,2301.88 7173.80,2301.50 7173.80,2301.50
             7173.80,2301.50 7151.06,2301.25 7151.06,2301.25
             7151.06,2301.25 7151.06,2467.62 7151.06,2467.62 Z
           M 5181.48,2313.25
           C 5181.48,2313.25 5159.86,2325.25 5159.86,2325.25
             5159.86,2325.25 5159.86,2479.50 5159.86,2479.50
             5159.86,2479.50 5159.86,2633.75 5159.86,2633.75
             5159.86,2633.75 5182.36,2633.75 5182.36,2633.75
             5182.36,2633.75 5204.86,2633.75 5204.86,2633.75
             5204.86,2633.75 5204.86,2467.50 5204.86,2467.50
             5204.86,2376.00 5204.48,2301.25 5203.98,2301.25
             5203.36,2301.25 5193.23,2306.75 5181.48,2313.25 Z
           M 3966.52,2313.38
           C 3966.52,2313.38 3944.89,2325.50 3944.89,2325.50
             3944.89,2325.50 3944.89,2479.62 3944.89,2479.62
             3944.89,2479.62 3944.89,2633.75 3944.89,2633.75
             3944.89,2633.75 3967.39,2633.75 3967.39,2633.75
             3967.39,2633.75 3989.77,2633.75 3989.77,2633.75
             3989.77,2633.75 3990.14,2572.12 3990.14,2572.12
             3990.14,2572.12 3990.52,2510.62 3990.52,2510.62
             3990.52,2510.62 3993.77,2501.62 3993.77,2501.62
             4005.02,2471.12 4036.14,2452.12 4066.51,2457.25
             4090.76,2461.38 4112.26,2480.00 4120.14,2503.62
             4122.76,2511.62 4122.89,2514.12 4123.39,2572.75
             4123.39,2572.75 4123.89,2633.75 4123.89,2633.75
             4123.89,2633.75 4145.64,2633.75 4145.64,2633.75
             4145.64,2633.75 4167.39,2633.75 4167.39,2633.75
             4167.39,2633.75 4167.39,2572.00 4167.39,2572.00
             4167.39,2504.12 4167.01,2500.00 4159.89,2481.50
             4155.51,2470.12 4146.89,2456.25 4138.14,2446.62
             4125.64,2432.75 4104.14,2420.12 4084.26,2414.88
             4072.14,2411.62 4046.01,2411.00 4034.27,2413.62
             4022.14,2416.38 4006.77,2422.38 3998.64,2427.62
             3994.52,2430.25 3990.77,2432.50 3990.52,2432.50
             3990.14,2432.50 3989.89,2403.00 3989.89,2366.88
             3989.89,2330.75 3989.52,2301.25 3989.02,2301.25
             3988.39,2301.38 3978.27,2306.75 3966.52,2313.38 Z
           M 2679.93,2467.50
           C 2679.93,2467.50 2679.93,2633.75 2679.93,2633.75
             2679.93,2633.75 2701.80,2633.75 2701.80,2633.75
             2701.80,2633.75 2723.68,2633.75 2723.68,2633.75
             2723.68,2633.75 2723.68,2561.88 2723.68,2561.88
             2723.68,2561.88 2723.68,2490.00 2723.68,2490.00
             2723.68,2490.00 2775.55,2490.00 2775.55,2490.00
             2775.55,2490.00 2827.42,2490.00 2827.42,2490.00
             2827.42,2490.00 2827.42,2467.50 2827.42,2467.50
             2827.42,2467.50 2827.42,2445.00 2827.42,2445.00
             2827.42,2445.00 2775.92,2444.75 2775.92,2444.75
             2775.92,2444.75 2724.30,2444.38 2724.30,2444.38
             2724.30,2444.38 2724.30,2395.00 2724.30,2395.00
             2724.30,2395.00 2724.30,2345.62 2724.30,2345.62
             2724.30,2345.62 2799.67,2345.25 2799.67,2345.25
             2799.67,2345.25 2874.92,2345.00 2874.92,2345.00
             2874.92,2345.00 2874.92,2323.12 2874.92,2323.12
             2874.92,2323.12 2874.92,2301.25 2874.92,2301.25
             2874.92,2301.25 2777.42,2301.25 2777.42,2301.25
             2777.42,2301.25 2679.93,2301.25 2679.93,2301.25
             2679.93,2301.25 2679.93,2467.50 2679.93,2467.50 Z
           M 8528.52,2326.88
           C 8528.52,2326.88 8528.52,2353.75 8528.52,2353.75
             8528.52,2353.75 8551.02,2353.75 8551.02,2353.75
             8551.02,2353.75 8573.52,2353.75 8573.52,2353.75
             8573.52,2353.75 8573.52,2326.88 8573.52,2326.88
             8573.52,2326.88 8573.52,2300.00 8573.52,2300.00
             8573.52,2300.00 8551.02,2300.00 8551.02,2300.00
             8551.02,2300.00 8528.52,2300.00 8528.52,2300.00
             8528.52,2300.00 8528.52,2326.88 8528.52,2326.88 Z
           M 6851.06,2300.75
           C 6830.19,2304.00 6815.44,2309.25 6801.06,2318.88
             6774.32,2336.88 6756.32,2365.75 6752.44,2397.50
             6751.57,2404.25 6751.07,2448.88 6751.07,2520.88
             6751.07,2520.88 6751.07,2633.75 6751.07,2633.75
             6751.07,2633.75 6773.57,2633.75 6773.57,2633.75
             6773.57,2633.75 6796.06,2633.75 6796.06,2633.75
             6796.06,2633.75 6796.31,2545.25 6796.31,2545.25
             6796.31,2545.25 6796.69,2456.88 6796.69,2456.88
             6796.69,2456.88 6824.56,2456.50 6824.56,2456.50
             6824.56,2456.50 6852.31,2456.25 6852.31,2456.25
             6852.31,2456.25 6852.31,2433.75 6852.31,2433.75
             6852.31,2433.75 6852.31,2411.25 6852.31,2411.25
             6852.31,2411.25 6824.06,2411.25 6824.06,2411.25
             6824.06,2411.25 6795.69,2411.25 6795.69,2411.25
             6795.69,2411.25 6796.56,2404.62 6796.56,2404.62
             6798.94,2386.75 6809.19,2369.12 6823.44,2358.62
             6833.06,2351.50 6841.94,2347.75 6853.94,2345.88
             6853.94,2345.88 6862.31,2344.50 6862.31,2344.50
             6862.31,2344.50 6862.31,2322.25 6862.31,2322.25
             6862.31,2322.25 6862.31,2300.00 6862.31,2300.00
             6862.31,2300.00 6858.31,2300.12 6858.31,2300.12
             6856.06,2300.25 6852.81,2300.50 6851.06,2300.75 Z
           M 4947.99,2300.75
           C 4934.99,2302.25 4920.37,2305.25 4909.74,2308.88
             4848.99,2329.12 4806.37,2380.88 4797.24,2444.88
             4795.24,2459.25 4796.49,2489.88 4799.74,2503.75
             4812.99,2561.50 4854.37,2607.12 4910.12,2625.50
             4932.99,2633.12 4940.12,2633.75 5001.36,2633.75
             5001.36,2633.75 5056.11,2633.75 5056.11,2633.75
             5056.11,2633.75 5056.11,2543.75 5056.11,2543.75
             5056.11,2543.75 5056.11,2453.75 5056.11,2453.75
             5056.11,2453.75 5004.86,2453.75 5004.86,2453.75
             5004.86,2453.75 4953.62,2453.75 4953.62,2453.75
             4953.62,2453.75 4953.62,2476.25 4953.62,2476.25
             4953.62,2476.25 4953.62,2498.75 4953.62,2498.75
             4953.62,2498.75 4982.36,2498.75 4982.36,2498.75
             4982.36,2498.75 5011.11,2498.75 5011.11,2498.75
             5011.11,2498.75 5011.11,2543.88 5011.11,2543.88
             5011.11,2543.88 5011.11,2589.00 5011.11,2589.00
             5011.11,2589.00 4975.86,2588.50 4975.86,2588.50
             4943.74,2588.00 4939.62,2587.62 4931.12,2585.12
             4888.49,2572.38 4856.24,2539.75 4844.62,2497.75
             4842.37,2489.62 4841.87,2484.75 4841.87,2466.88
             4841.87,2447.25 4842.12,2444.75 4845.37,2434.38
             4860.37,2385.38 4900.12,2351.88 4950.12,2346.00
             4973.74,2343.25 5000.86,2348.75 5021.61,2360.62
             5021.61,2360.62 5030.99,2365.88 5030.99,2365.88
             5030.99,2365.88 5041.49,2350.12 5041.49,2350.12
             5047.24,2341.50 5052.86,2332.88 5053.99,2331.12
             5053.99,2331.12 5056.11,2327.88 5056.11,2327.88
             5056.11,2327.88 5044.36,2321.38 5044.36,2321.38
             5029.99,2313.38 5012.86,2307.12 4996.11,2303.75
             4983.86,2301.25 4958.11,2299.62 4947.99,2300.75 Z
           M 597.48,1461.25
           C 563.36,1466.00 540.61,1484.75 533.61,1513.75
             531.61,1522.37 531.49,1542.12 533.61,1551.88
             536.36,1564.87 542.11,1583.38 552.23,1612.50
             570.36,1664.25 574.98,1684.62 574.98,1712.38
             574.98,1742.38 570.48,1766.88 561.36,1785.87
             553.11,1802.88 543.49,1811.25 527.49,1815.00
             517.74,1817.25 513.61,1819.25 509.74,1823.37
             500.24,1833.37 501.99,1846.50 516.86,1876.25
             527.61,1897.88 527.49,1896.62 520.36,1899.75
             500.11,1908.37 364.49,1957.38 186.49,2020.12
             145.75,2034.50 112.12,2046.25 111.62,2046.25
             111.12,2046.25 123.37,2038.62 138.75,2029.12
             326.99,1914.62 484.24,1818.00 512.49,1799.38
             523.11,1792.38 533.24,1785.87 534.99,1785.00
             541.74,1781.62 549.11,1774.38 551.61,1768.88
             555.36,1760.50 553.98,1753.25 542.61,1719.25
             531.86,1687.00 526.36,1666.50 522.49,1643.75
             520.11,1629.38 519.24,1620.88 515.61,1575.00
             511.86,1528.88 509.49,1519.12 502.11,1520.25
             492.49,1521.75 487.74,1551.75 489.24,1603.75
             490.11,1638.38 492.36,1661.00 497.74,1692.50
             499.99,1705.25 501.74,1718.37 501.86,1721.88
             501.86,1727.25 501.49,1728.12 499.24,1728.50
             497.86,1728.75 486.24,1725.12 473.61,1720.62
             460.99,1716.00 447.74,1711.62 444.11,1710.87
             444.11,1710.87 437.74,1709.50 437.74,1709.50
             437.74,1709.50 430.36,1715.50 430.36,1715.50
             395.49,1744.25 -0.87,2102.50 1.12,2103.50
             2.50,2104.00 320.37,2002.25 452.24,1959.25
             524.24,1935.75 547.11,1927.75 549.49,1925.38
             550.74,1924.00 551.23,1920.12 551.23,1910.25
             551.23,1890.62 553.11,1875.25 555.86,1872.25
             557.86,1870.00 559.23,1869.75 566.86,1870.38
             589.48,1872.12 631.23,1886.62 661.36,1903.25
             693.73,1921.12 718.86,1945.87 734.11,1974.75
             744.73,1994.88 752.73,2024.75 750.23,2034.38
             748.85,2039.88 740.23,2043.62 706.86,2053.12
             691.11,2057.62 676.73,2062.25 675.11,2063.50
             671.48,2066.25 669.48,2071.62 651.23,2127.50
             611.61,2249.75 473.11,2692.25 474.24,2693.38
             475.36,2694.50 795.23,2344.25 877.60,2251.75
             918.72,2205.50 922.47,2200.88 922.47,2196.50
             922.47,2194.38 919.60,2184.62 916.10,2174.75
             901.10,2132.75 897.10,2119.50 896.98,2111.88
             896.85,2105.12 897.10,2104.38 900.10,2102.88
             909.35,2098.38 946.85,2095.00 988.22,2095.00
             1072.10,2095.00 1107.47,2105.25 1147.72,2141.25
             1161.09,2153.25 1176.22,2173.25 1176.22,2179.00
             1176.22,2179.88 1160.72,2195.88 1141.72,2214.50
             1141.72,2214.50 1107.09,2248.50 1107.09,2248.50
             1107.09,2248.50 1107.84,2257.00 1107.84,2257.00
             1108.59,2266.88 1124.84,2348.12 1153.09,2485.00
             1181.09,2620.12 1249.84,2948.25 1251.97,2957.00
             1252.97,2960.75 1254.59,2953.25 1306.21,2706.88
             1355.84,2469.38 1390.21,2301.62 1396.21,2267.12
             1396.21,2267.12 1398.96,2251.25 1398.96,2251.25
             1398.96,2251.25 1395.46,2246.50 1395.46,2246.50
             1393.59,2244.00 1383.46,2233.75 1373.21,2223.75
             1338.84,2190.75 1329.96,2181.50 1329.96,2178.50
             1329.96,2173.25 1337.46,2162.50 1350.59,2149.00
             1374.34,2124.38 1400.84,2108.75 1430.34,2101.88
             1464.34,2094.00 1549.58,2092.75 1590.83,2099.38
             1604.46,2101.62 1608.58,2103.25 1609.46,2107.00
             1610.58,2111.50 1605.46,2129.75 1594.21,2160.88
             1588.46,2176.75 1583.46,2192.00 1582.96,2194.62
             1582.21,2199.38 1582.58,2199.88 1595.08,2214.38
             1634.46,2260.38 1747.83,2385.12 2012.95,2674.62
             2023.19,2685.88 2031.82,2694.88 2031.94,2694.62
             2032.07,2694.50 2014.82,2638.38 1993.57,2570.00
             1919.70,2332.75 1871.20,2179.00 1847.82,2108.25
             1847.82,2108.25 1833.45,2064.75 1833.45,2064.75
             1833.45,2064.75 1828.08,2062.38 1828.08,2062.38
             1825.20,2061.12 1811.83,2056.88 1798.58,2053.12
             1767.83,2044.25 1760.83,2041.62 1757.33,2038.00
             1754.83,2035.38 1754.70,2034.25 1755.33,2025.38
             1756.58,2007.00 1766.33,1981.12 1779.08,1961.75
             1796.45,1935.50 1819.20,1915.87 1852.20,1898.88
             1883.82,1882.75 1928.32,1868.75 1944.32,1870.25
             1951.95,1870.87 1952.70,1873.62 1953.70,1901.62
             1954.20,1920.38 1954.70,1925.38 1956.20,1926.25
             1961.07,1929.38 2115.32,1979.75 2316.81,2044.12
             2492.81,2100.50 2503.93,2104.00 2504.43,2103.50
             2504.81,2103.00 2339.19,1952.00 2233.06,1856.12
             2143.82,1775.62 2085.44,1723.75 2073.19,1714.12
             2067.32,1709.62 2067.19,1709.50 2060.69,1710.87
             2057.19,1711.62 2044.94,1715.75 2033.69,1719.88
             2008.82,1729.12 2004.32,1730.12 2003.07,1726.50
             2002.70,1725.00 2004.07,1714.38 2006.07,1702.88
             2014.32,1657.25 2016.70,1627.37 2015.82,1580.88
             2015.20,1545.75 2013.82,1535.00 2009.07,1525.12
             2007.45,1522.00 2005.82,1520.50 2003.57,1520.25
             1998.95,1519.75 1996.32,1523.38 1994.32,1533.88
             1992.82,1542.25 1991.57,1554.87 1985.57,1630.00
             1984.45,1642.75 1981.95,1670.25 1979.95,1691.25
             1975.07,1742.25 1974.57,1751.25 1975.57,1758.88
             1975.57,1758.88 1976.45,1765.38 1976.45,1765.38
             1976.45,1765.38 1984.20,1764.62 1984.20,1764.62
             1988.32,1764.12 1999.95,1761.88 2009.95,1759.50
             2050.57,1749.75 2063.19,1747.12 2066.19,1747.88
             2069.82,1748.88 2093.94,1769.88 2178.69,1846.12
             2245.06,1905.87 2388.93,2036.25 2393.06,2040.25
             2395.56,2042.75 2395.56,2042.75 2392.43,2041.25
             2376.44,2033.12 2160.94,1911.38 2090.57,1870.62
             2001.70,1819.25 1972.70,1800.87 1965.20,1791.38
             1953.45,1776.62 1941.07,1751.25 1935.20,1730.12
             1932.32,1719.62 1931.82,1715.75 1931.82,1699.38
             1931.82,1674.87 1932.32,1672.75 1958.45,1596.25
             1964.07,1580.12 1969.70,1561.12 1971.07,1554.12
             1979.20,1514.75 1967.07,1484.75 1937.20,1470.00
             1924.95,1464.00 1914.20,1461.50 1896.20,1460.50
             1842.32,1457.25 1790.45,1482.37 1794.20,1509.87
             1795.33,1517.75 1802.70,1530.75 1817.95,1551.75
             1843.57,1586.75 1847.57,1594.62 1850.07,1615.12
             1852.95,1639.38 1847.45,1672.88 1834.95,1705.75
             1825.83,1730.25 1816.70,1743.37 1771.58,1797.25
             1739.83,1835.12 1725.20,1854.75 1714.33,1873.88
             1694.70,1908.12 1688.58,1950.62 1695.70,2003.12
             1698.95,2026.62 1707.70,2058.75 1713.20,2067.12
             1716.70,2072.62 1735.33,2080.38 1769.95,2090.62
             1780.58,2093.88 1794.83,2098.12 1801.45,2100.12
             1801.45,2100.12 1813.58,2103.75 1813.58,2103.75
             1813.58,2103.75 1816.33,2111.00 1816.33,2111.00
             1822.58,2127.25 1876.32,2292.12 1934.32,2472.50
             1950.57,2523.00 1965.20,2568.62 1966.82,2573.62
             1968.57,2578.75 1969.45,2582.50 1968.82,2581.75
             1968.20,2581.12 1941.45,2535.38 1909.32,2480.00
             1774.58,2248.00 1687.08,2099.25 1674.95,2081.25
             1655.83,2053.00 1646.83,2012.25 1651.08,1973.37
             1654.33,1943.88 1665.33,1922.75 1736.83,1808.12
             1799.08,1708.37 1803.33,1700.25 1808.83,1669.00
             1812.33,1649.87 1812.70,1620.75 1809.58,1608.38
             1803.83,1585.38 1786.08,1566.00 1763.33,1557.75
             1742.58,1550.25 1705.45,1555.62 1694.08,1567.75
             1692.58,1569.38 1690.08,1573.50 1688.58,1576.88
             1685.95,1582.50 1685.58,1586.00 1684.83,1611.25
             1683.83,1642.88 1682.58,1649.62 1675.08,1668.25
             1667.83,1686.38 1665.83,1695.75 1665.70,1712.50
             1665.70,1712.50 1665.58,1726.88 1665.58,1726.88
             1665.58,1726.88 1670.70,1736.25 1670.70,1736.25
             1677.70,1748.75 1679.08,1754.38 1677.45,1762.12
             1673.20,1781.00 1644.08,1824.75 1618.83,1850.12
             1596.58,1872.38 1567.71,1885.75 1551.58,1881.38
             1548.46,1880.62 1539.58,1876.12 1531.71,1871.38
             1507.58,1856.75 1489.83,1850.62 1465.59,1848.88
             1441.59,1847.12 1408.96,1850.87 1397.46,1856.88
             1392.59,1859.38 1392.59,1863.62 1397.46,1869.25
             1404.71,1877.38 1406.71,1884.12 1406.59,1898.75
             1406.46,1921.38 1401.59,1938.00 1392.46,1948.00
             1384.21,1956.88 1377.71,1959.00 1354.96,1959.88
             1343.34,1960.38 1334.46,1961.38 1332.84,1962.25
             1326.59,1965.62 1324.59,1974.25 1321.84,2007.50
             1318.09,2052.50 1313.34,2065.25 1286.71,2102.62
             1270.84,2124.88 1268.22,2130.50 1268.22,2140.62
             1268.34,2153.62 1270.97,2157.50 1296.59,2182.88
             1335.84,2221.88 1367.46,2257.12 1367.46,2262.00
             1367.46,2265.75 1351.21,2342.75 1305.59,2555.62
             1257.47,2779.88 1253.84,2796.50 1253.34,2797.00
             1252.84,2797.62 1251.22,2379.25 1251.22,2231.25
             1251.22,2231.25 1251.22,2124.25 1251.22,2124.25
             1251.22,2124.25 1245.97,2119.25 1245.97,2119.25
             1242.97,2116.38 1237.97,2112.62 1234.84,2110.88
             1216.72,2100.62 1199.97,2079.50 1192.34,2057.12
             1187.97,2044.38 1185.59,2030.62 1183.84,2008.12
             1181.09,1973.88 1178.84,1965.25 1171.84,1962.00
             1168.84,1960.50 1163.84,1960.00 1152.84,1960.00
             1135.84,1960.00 1125.59,1957.88 1118.22,1952.75
             1106.97,1945.00 1100.35,1927.75 1099.10,1903.12
             1098.22,1886.00 1100.10,1878.37 1107.47,1869.50
             1110.22,1866.25 1112.47,1862.75 1112.47,1861.75
             1112.47,1851.88 1055.97,1844.62 1024.35,1850.62
             1009.22,1853.37 990.60,1860.87 975.60,1870.12
             956.97,1881.62 953.47,1883.00 944.47,1882.00
             918.22,1879.25 889.35,1857.75 860.98,1820.00
             840.35,1792.38 828.98,1771.38 827.73,1758.50
             827.10,1751.62 827.48,1750.50 833.60,1738.37
             839.98,1725.87 840.10,1725.12 840.10,1714.88
             840.23,1698.00 837.48,1685.12 829.60,1666.25
             823.98,1652.62 821.73,1640.88 819.35,1613.88
             814.85,1562.88 809.73,1556.88 770.60,1556.88
             751.10,1556.88 741.23,1559.12 727.11,1566.62
             711.61,1574.75 699.61,1591.62 695.61,1610.62
             691.98,1628.12 693.86,1660.38 700.11,1684.75
             704.86,1703.62 721.48,1733.37 770.60,1811.25
             817.73,1886.00 842.60,1930.00 849.85,1951.12
             853.98,1963.25 862.60,2024.38 863.35,2047.75
             864.10,2069.62 862.85,2079.38 857.98,2089.12
             853.10,2099.00 853.48,2101.75 867.23,2151.25
             871.35,2166.00 875.35,2180.88 875.98,2184.12
             875.98,2184.12 877.23,2190.25 877.23,2190.25
             877.23,2190.25 868.98,2200.38 868.98,2200.38
             841.98,2233.75 751.60,2339.00 600.73,2512.50
             570.61,2547.25 545.11,2576.50 543.99,2577.50
             542.99,2578.50 543.49,2576.88 545.24,2573.75
             546.99,2570.62 563.61,2541.38 582.11,2508.75
             702.86,2296.12 794.48,2132.38 817.60,2088.12
             830.10,2064.00 831.73,2057.88 831.60,2032.50
             831.48,2000.50 823.85,1961.88 808.98,1916.62
             794.73,1873.50 785.23,1858.50 730.61,1793.12
             682.86,1736.00 677.11,1727.00 666.23,1693.88
             657.86,1668.50 655.73,1655.00 655.61,1630.00
             655.61,1610.88 655.98,1607.00 658.36,1599.38
             661.61,1588.88 669.61,1576.00 687.86,1551.25
             715.11,1514.38 717.36,1502.62 700.48,1486.00
             690.36,1475.88 670.86,1467.12 649.48,1463.12
             637.23,1460.75 608.61,1459.75 597.48,1461.25 Z
           M 1106.84,1417.37
           C 1094.72,1420.50 1084.22,1425.00 1073.97,1431.62
             1056.60,1442.88 1046.97,1454.00 1047.72,1462.12
             1048.10,1466.50 1048.60,1467.00 1054.10,1469.00
             1057.35,1470.25 1071.10,1472.62 1084.72,1474.38
             1110.84,1477.75 1119.59,1479.75 1128.72,1484.38
             1156.72,1498.75 1173.72,1538.75 1182.97,1612.62
             1187.47,1647.75 1189.09,1671.00 1188.47,1692.12
             1187.72,1719.75 1185.84,1722.25 1164.09,1723.75
             1147.22,1724.88 1140.59,1726.88 1134.97,1732.50
             1128.97,1738.50 1126.09,1747.75 1125.34,1763.25
             1124.47,1779.38 1126.84,1788.37 1133.59,1795.12
             1139.09,1800.62 1143.72,1802.00 1162.09,1803.62
             1176.09,1804.88 1183.47,1807.00 1187.84,1811.00
             1195.09,1817.50 1198.09,1834.00 1194.47,1846.62
             1190.34,1860.87 1180.47,1866.75 1153.34,1871.38
             1127.72,1875.62 1118.97,1880.00 1113.59,1890.87
             1111.22,1895.87 1110.72,1898.88 1110.72,1909.38
             1110.59,1924.38 1113.59,1932.62 1121.59,1939.38
             1130.59,1947.12 1135.84,1948.12 1166.22,1948.12
             1166.22,1948.12 1193.09,1948.12 1193.09,1948.12
             1193.09,1948.12 1194.59,1951.38 1194.59,1951.38
             1195.47,1953.25 1197.34,1963.37 1198.72,1973.88
             1201.97,1998.25 1207.97,2026.38 1212.72,2040.00
             1219.84,2060.50 1232.72,2083.62 1245.97,2099.75
             1245.97,2099.75 1250.47,2105.38 1250.47,2105.38
             1250.47,2105.38 1254.97,2100.25 1254.97,2100.25
             1266.34,2087.50 1281.84,2060.12 1288.46,2041.12
             1293.46,2026.75 1299.34,1999.88 1302.46,1976.25
             1305.21,1955.50 1306.84,1948.88 1309.09,1948.50
             1309.96,1948.37 1322.46,1948.25 1336.84,1948.25
             1361.21,1948.12 1363.59,1947.88 1370.21,1945.25
             1384.21,1939.62 1391.21,1927.62 1391.21,1909.50
             1391.21,1899.12 1389.71,1893.12 1385.84,1887.38
             1380.09,1878.75 1372.09,1875.50 1347.09,1871.25
             1327.59,1867.88 1320.21,1865.00 1313.96,1858.25
             1307.71,1851.38 1305.71,1845.50 1305.84,1833.50
             1305.96,1821.62 1309.34,1813.75 1316.21,1809.25
             1320.96,1806.12 1326.96,1804.75 1347.21,1802.62
             1362.09,1801.00 1367.96,1798.00 1372.34,1789.38
             1375.34,1783.62 1375.59,1782.00 1375.59,1765.62
             1375.59,1750.00 1375.21,1747.38 1372.71,1741.75
             1366.84,1728.88 1360.21,1725.38 1338.59,1723.88
             1314.09,1722.12 1313.09,1720.62 1313.09,1685.00
             1313.21,1643.25 1320.71,1582.88 1329.71,1551.88
             1337.71,1524.50 1346.09,1507.88 1358.21,1495.75
             1371.84,1482.25 1380.21,1479.12 1416.84,1474.38
             1448.59,1470.25 1454.96,1468.12 1454.96,1462.12
             1454.96,1454.38 1439.46,1438.25 1423.09,1428.88
             1402.59,1417.12 1378.21,1412.37 1358.46,1416.25
             1327.96,1422.12 1295.71,1452.25 1276.22,1493.00
             1272.97,1500.00 1266.72,1515.50 1262.47,1527.50
             1258.22,1539.50 1253.72,1550.38 1252.47,1551.75
             1250.22,1554.00 1250.22,1554.00 1248.34,1551.12
             1247.22,1549.50 1243.22,1539.12 1239.34,1528.12
             1226.34,1491.12 1213.47,1468.00 1195.22,1448.62
             1178.59,1430.88 1163.09,1421.00 1146.09,1416.88
             1135.47,1414.38 1117.72,1414.62 1106.84,1417.37 Z
           M 1484.96,1120.87
           C 1447.71,1125.75 1422.59,1147.37 1412.21,1183.25
             1409.84,1191.50 1409.34,1196.12 1409.34,1211.25
             1409.34,1234.12 1410.21,1236.25 1420.46,1236.25
             1424.09,1236.25 1434.84,1234.25 1444.46,1231.88
             1479.33,1223.12 1492.33,1223.25 1511.08,1232.62
             1529.46,1241.88 1549.96,1261.25 1557.96,1277.12
             1562.08,1285.50 1566.21,1300.38 1566.21,1307.37
             1566.21,1314.50 1562.21,1318.25 1545.21,1327.37
             1538.21,1331.12 1531.71,1335.00 1530.83,1336.00
             1529.83,1337.37 1529.33,1344.00 1529.33,1358.62
             1529.21,1377.62 1528.96,1380.38 1525.83,1390.62
             1519.08,1412.37 1502.96,1441.50 1485.08,1463.75
             1473.21,1478.50 1447.09,1506.12 1431.21,1520.88
             1403.96,1546.00 1386.46,1557.75 1364.59,1565.62
             1359.46,1567.50 1357.71,1569.00 1353.71,1575.25
             1345.59,1587.75 1337.46,1609.87 1337.46,1619.50
             1337.46,1626.62 1339.84,1631.00 1344.46,1632.50
             1347.96,1633.75 1350.84,1633.38 1361.46,1630.75
             1403.59,1620.25 1436.71,1598.75 1498.08,1542.50
             1543.96,1500.38 1570.83,1461.62 1593.58,1404.62
             1602.33,1382.88 1605.71,1376.88 1609.33,1376.88
             1616.83,1376.88 1616.46,1402.12 1608.46,1429.38
             1591.46,1488.12 1539.21,1559.38 1482.21,1602.00
             1445.34,1629.50 1409.96,1645.75 1351.84,1661.88
             1329.71,1668.00 1329.96,1667.75 1329.96,1679.75
             1329.96,1687.25 1330.59,1690.75 1332.84,1695.62
             1336.34,1703.00 1347.21,1713.37 1355.84,1717.62
             1368.46,1723.88 1392.46,1719.88 1436.84,1704.38
             1514.08,1677.25 1509.71,1678.25 1516.71,1686.50
             1519.21,1689.38 1522.46,1694.88 1523.96,1698.62
             1526.46,1704.88 1526.83,1707.75 1526.71,1724.38
             1526.58,1746.62 1524.83,1754.38 1514.33,1778.88
             1506.71,1796.75 1505.21,1803.12 1507.33,1810.87
             1509.21,1817.75 1515.71,1826.12 1521.83,1829.62
             1537.21,1838.25 1569.58,1835.87 1594.71,1824.38
             1614.83,1815.00 1632.46,1798.62 1641.21,1780.87
             1645.58,1772.00 1646.46,1768.88 1647.08,1760.50
             1648.96,1731.75 1633.08,1704.50 1585.83,1655.25
             1575.71,1644.75 1566.46,1634.75 1565.33,1633.00
             1562.08,1628.00 1562.08,1628.00 1590.58,1593.12
             1640.96,1531.62 1663.83,1492.37 1678.08,1443.12
             1686.08,1415.50 1689.83,1384.87 1687.45,1365.87
             1685.45,1349.75 1683.58,1346.75 1671.20,1340.62
             1656.95,1333.62 1651.33,1326.50 1651.21,1315.50
             1651.08,1290.25 1690.70,1245.12 1725.95,1230.25
             1741.20,1223.75 1761.83,1224.12 1788.08,1231.25
             1802.58,1235.25 1808.58,1235.75 1812.45,1233.75
             1819.70,1229.87 1820.95,1196.25 1814.58,1176.88
             1806.20,1151.38 1789.20,1134.00 1764.95,1125.75
             1745.58,1119.38 1720.70,1118.50 1699.33,1123.62
             1668.95,1131.00 1645.96,1150.38 1629.96,1182.25
             1624.83,1192.62 1614.96,1217.37 1614.96,1220.38
             1614.96,1221.12 1613.58,1224.62 1612.08,1228.12
             1609.46,1233.75 1608.96,1234.12 1607.83,1231.88
             1607.08,1230.50 1604.21,1221.38 1601.33,1211.50
             1592.21,1179.38 1582.08,1160.38 1566.21,1144.87
             1556.08,1135.12 1542.08,1127.37 1527.83,1123.62
             1518.21,1121.12 1494.46,1119.50 1484.96,1120.87 Z
           M 763.10,1120.75
           C 729.73,1125.75 708.36,1139.50 696.48,1163.88
             689.86,1177.37 687.48,1186.38 686.61,1201.88
             685.36,1223.50 689.61,1235.00 698.73,1235.00
             700.98,1235.00 710.36,1233.00 719.73,1230.50
             734.36,1226.62 738.98,1226.00 751.23,1225.87
             761.60,1225.75 767.73,1226.38 773.10,1228.00
             800.60,1236.12 835.10,1267.62 849.48,1297.88
             853.10,1305.50 853.98,1308.88 853.98,1314.75
             853.98,1327.00 849.35,1332.88 833.73,1341.00
             825.48,1345.25 823.98,1346.50 821.23,1352.00
             818.48,1357.37 818.10,1360.12 817.73,1374.38
             816.60,1413.25 828.98,1460.00 851.85,1503.50
             865.48,1529.25 881.98,1552.62 916.73,1595.38
             927.85,1609.00 938.10,1622.25 939.72,1624.87
             939.72,1624.87 942.47,1629.62 942.47,1629.62
             942.47,1629.62 938.47,1634.75 938.47,1634.75
             936.22,1637.50 925.10,1649.50 913.98,1661.50
             885.10,1692.00 871.10,1711.12 863.73,1730.38
             856.23,1749.38 856.35,1764.25 864.10,1780.50
             874.98,1803.37 898.48,1821.75 928.22,1830.75
             942.85,1835.12 967.97,1835.87 978.10,1832.00
             987.35,1828.50 991.85,1824.62 995.60,1816.88
             1000.72,1806.50 999.85,1798.75 990.85,1778.12
             973.85,1738.88 973.10,1706.00 988.85,1686.12
             991.97,1682.12 993.47,1681.25 996.97,1681.25
             1002.10,1681.25 1017.22,1686.00 1052.85,1698.88
             1098.47,1715.38 1126.47,1722.38 1139.97,1720.50
             1147.47,1719.50 1156.59,1714.38 1163.97,1707.25
             1173.22,1698.25 1177.47,1686.50 1175.72,1674.62
             1174.72,1667.75 1173.34,1667.12 1147.97,1660.12
             1101.47,1647.50 1070.85,1634.12 1037.47,1611.88
             1016.85,1598.25 1001.72,1585.38 981.22,1564.12
             931.22,1512.62 896.73,1450.38 891.35,1402.00
             889.60,1386.75 891.98,1376.25 896.98,1376.25
             899.60,1376.25 902.98,1382.50 910.23,1400.62
             937.22,1468.75 966.60,1508.25 1032.35,1564.75
             1077.72,1603.88 1106.84,1621.25 1142.97,1630.62
             1162.47,1635.62 1167.47,1633.38 1167.47,1619.62
             1167.47,1605.75 1154.47,1574.62 1146.22,1568.50
             1144.47,1567.25 1138.72,1564.62 1133.34,1562.62
             1121.97,1558.38 1109.59,1550.88 1094.97,1539.25
             1080.35,1527.62 1035.22,1482.25 1022.47,1466.25
             1000.72,1439.00 985.22,1411.12 979.10,1388.00
             976.22,1377.12 975.85,1373.37 975.97,1356.62
             975.97,1356.62 975.97,1337.50 975.97,1337.50
             975.97,1337.50 972.22,1334.38 972.22,1334.38
             970.10,1332.50 964.35,1329.12 959.60,1326.62
             938.97,1316.25 937.35,1313.88 940.35,1298.50
             941.47,1292.88 944.47,1283.88 947.22,1278.25
             956.47,1259.00 982.85,1235.62 1003.22,1228.62
             1016.85,1223.88 1032.47,1224.62 1058.47,1231.12
             1088.10,1238.50 1093.72,1238.00 1095.85,1227.75
             1097.72,1219.12 1096.60,1196.25 1093.85,1185.62
             1089.35,1168.50 1082.35,1155.87 1070.72,1144.38
             1053.35,1127.12 1036.47,1121.00 1006.22,1120.87
             985.10,1120.75 976.35,1122.50 960.10,1130.25
             951.60,1134.25 947.47,1137.37 938.72,1146.12
             922.22,1162.37 912.85,1180.38 904.23,1211.25
             898.35,1232.12 897.48,1234.38 895.60,1232.25
             894.73,1231.38 891.73,1223.62 888.85,1215.00
             870.85,1161.38 846.10,1133.88 806.85,1123.75
             797.10,1121.25 771.73,1119.50 763.10,1120.75 Z
           M 8656.64,1105.75
           C 8654.64,1106.00 8646.76,1106.88 8639.14,1107.62
             8595.52,1112.00 8546.77,1124.75 8504.14,1142.75
             8445.77,1167.50 8394.27,1202.75 8349.15,1249.00
             8272.90,1326.88 8227.40,1423.25 8214.53,1534.38
             8212.03,1555.88 8212.40,1619.00 8215.28,1640.62
             8223.03,1700.87 8237.53,1749.38 8262.90,1800.00
             8287.40,1848.75 8314.02,1885.62 8352.90,1924.38
             8415.27,1986.88 8490.02,2029.38 8574.77,2050.62
             8615.89,2061.00 8646.01,2064.38 8694.76,2064.25
             8725.51,2064.25 8735.14,2063.75 8752.26,2061.50
             8832.26,2050.75 8900.51,2024.75 8965.13,1980.50
             8972.51,1975.38 8978.88,1971.25 8979.13,1971.25
             8979.51,1971.25 8979.76,1992.38 8979.76,2018.12
             8979.76,2018.12 8979.76,2065.00 8979.76,2065.00
             8979.76,2065.00 9076.00,2065.00 9076.00,2065.00
             9076.00,2065.00 9172.38,2065.00 9172.38,2065.00
             9172.38,2065.00 9171.88,1802.75 9171.88,1802.75
             9171.50,1518.25 9171.88,1537.88 9164.75,1497.75
             9130.75,1307.88 8982.38,1155.25 8792.39,1115.00
             8759.14,1107.88 8740.39,1106.12 8698.51,1105.62
             8677.51,1105.38 8658.76,1105.50 8656.64,1105.75 Z
           M 8733.39,1300.75
           C 8848.51,1318.12 8942.13,1402.62 8970.51,1514.50
             8976.88,1540.12 8979.01,1557.12 8979.01,1585.00
             8979.01,1613.00 8976.88,1630.38 8970.38,1655.62
             8949.26,1738.00 8892.38,1807.12 8815.38,1843.88
             8718.51,1890.12 8606.14,1878.62 8519.64,1813.50
             8458.89,1767.75 8419.65,1701.00 8407.77,1623.12
             8405.27,1606.62 8404.90,1567.00 8407.15,1551.25
             8414.90,1495.38 8434.77,1448.38 8468.52,1405.62
             8486.14,1383.25 8516.77,1356.25 8542.39,1340.38
             8579.77,1317.12 8623.77,1302.88 8672.26,1298.25
             8683.01,1297.25 8720.51,1298.75 8733.39,1300.75 Z
           M 4239.26,1105.75
           C 4237.26,1106.00 4229.38,1106.88 4221.76,1107.62
             4132.89,1116.50 4045.51,1153.00 3971.89,1211.75
             3953.64,1226.25 3914.89,1265.38 3899.52,1284.75
             3843.90,1355.12 3810.52,1434.00 3798.52,1523.12
             3795.27,1547.75 3794.02,1595.50 3796.02,1620.62
             3803.90,1719.88 3838.90,1808.75 3900.64,1886.25
             3925.89,1917.88 3965.89,1955.25 3999.89,1979.00
             4038.27,2005.75 4087.14,2029.75 4129.89,2043.00
             4175.76,2057.12 4214.76,2063.38 4263.01,2064.62
             4304.51,2065.62 4341.63,2062.12 4379.26,2053.75
             4546.13,2016.50 4679.50,1895.12 4732.12,1732.50
             4759.12,1648.88 4762.37,1555.62 4741.12,1469.38
             4707.25,1332.12 4615.25,1217.37 4488.25,1154.38
             4441.13,1130.87 4392.13,1116.00 4338.01,1108.62
             4323.38,1106.62 4311.01,1106.00 4281.13,1105.62
             4260.13,1105.38 4241.38,1105.50 4239.26,1105.75 Z
           M 4316.01,1300.75
           C 4364.01,1308.00 4408.50,1326.62 4448.00,1356.25
             4463.88,1368.00 4491.63,1395.75 4503.25,1411.38
             4527.25,1443.38 4543.50,1477.12 4553.00,1514.25
             4559.50,1540.00 4561.63,1557.12 4561.63,1585.00
             4561.63,1622.00 4555.63,1654.75 4543.00,1687.00
             4489.63,1823.62 4345.63,1898.62 4204.76,1863.12
             4175.14,1855.62 4142.64,1841.25 4117.64,1824.62
             4046.14,1776.75 4001.89,1705.62 3989.77,1618.75
             3987.52,1602.75 3987.89,1564.62 3990.39,1546.88
             3996.02,1507.50 4010.02,1467.88 4029.52,1436.25
             4053.01,1398.25 4086.89,1364.00 4123.89,1341.00
             4160.89,1318.00 4205.51,1303.00 4248.76,1298.75
             4264.51,1297.25 4300.01,1298.25 4316.01,1300.75 Z
           M 6649.82,1345.62
           C 6649.82,1345.62 6649.82,2065.00 6649.82,2065.00
             6649.82,2065.00 6746.69,2065.00 6746.69,2065.00
             6746.69,2065.00 6843.56,2065.00 6843.56,2065.00
             6843.56,2065.00 6843.56,1753.75 6843.56,1753.75
             6843.56,1753.75 6843.56,1442.50 6843.56,1442.50
             6843.56,1442.50 7241.68,1442.50 7241.68,1442.50
             7241.68,1442.50 7639.79,1442.50 7639.79,1442.50
             7639.79,1442.50 7639.79,1753.75 7639.79,1753.75
             7639.79,1753.75 7639.79,2065.00 7639.79,2065.00
             7639.79,2065.00 7736.66,2065.00 7736.66,2065.00
             7736.66,2065.00 7833.54,2065.00 7833.54,2065.00
             7833.54,2065.00 7833.54,1345.62 7833.54,1345.62
             7833.54,1345.62 7833.54,626.25 7833.54,626.25
             7833.54,626.25 7736.66,626.25 7736.66,626.25
             7736.66,626.25 7639.79,626.25 7639.79,626.25
             7639.79,626.25 7639.79,937.50 7639.79,937.50
             7639.79,937.50 7639.79,1248.75 7639.79,1248.75
             7639.79,1248.75 7241.68,1248.75 7241.68,1248.75
             7241.68,1248.75 6843.56,1248.75 6843.56,1248.75
             6843.56,1248.75 6843.56,937.50 6843.56,937.50
             6843.56,937.50 6843.56,626.25 6843.56,626.25
             6843.56,626.25 6746.69,626.25 6746.69,626.25
             6746.69,626.25 6649.82,626.25 6649.82,626.25
             6649.82,626.25 6649.82,1345.62 6649.82,1345.62 Z
           M 5163.61,1345.62
           C 5163.61,1345.62 5163.61,2065.00 5163.61,2065.00
             5163.61,2065.00 5260.48,2065.00 5260.48,2065.00
             5260.48,2065.00 5357.35,2065.00 5357.35,2065.00
             5357.35,2065.00 5357.35,1791.88 5357.35,1791.88
             5357.35,1791.88 5357.35,1518.75 5357.35,1518.75
             5357.35,1518.75 5511.35,1519.00 5511.35,1519.00
             5511.35,1519.00 5665.22,1519.38 5665.22,1519.38
             5665.22,1519.38 5821.22,1791.88 5821.22,1791.88
             5821.22,1791.88 5977.21,2064.38 5977.21,2064.38
             5977.21,2064.38 6088.46,2064.75 6088.46,2064.75
             6088.46,2064.75 6199.71,2065.00 6199.71,2065.00
             6199.71,2065.00 6095.83,1883.50 6095.83,1883.50
             6038.71,1783.62 5965.59,1655.88 5933.46,1599.62
             5901.21,1543.38 5874.84,1496.88 5874.84,1496.50
             5874.84,1496.00 5879.46,1494.00 5885.21,1492.12
             5926.59,1478.00 5967.09,1457.62 6004.34,1432.37
             6049.46,1401.75 6095.46,1355.87 6125.58,1311.25
             6192.08,1212.88 6214.71,1094.75 6189.08,980.25
             6160.71,853.12 6072.71,743.25 5949.46,680.75
             5896.71,654.00 5841.72,637.50 5776.72,629.12
             5761.97,627.25 5732.59,627.00 5462.10,626.62
             5462.10,626.62 5163.61,626.12 5163.61,626.12
             5163.61,626.12 5163.61,1345.62 5163.61,1345.62 Z
           M 5758.59,821.88
           C 5889.46,838.00 5992.09,932.50 6004.84,1048.62
             6007.09,1068.88 6005.84,1097.75 6001.84,1117.00
             5992.46,1161.75 5971.09,1201.62 5937.34,1236.62
             5892.71,1283.25 5832.47,1312.62 5759.22,1323.88
             5751.72,1325.12 5699.97,1325.62 5553.35,1325.87
             5553.35,1325.87 5357.35,1326.38 5357.35,1326.38
             5357.35,1326.38 5357.35,1073.12 5357.35,1073.12
             5357.35,1073.12 5357.35,820.00 5357.35,820.00
             5357.35,820.00 5550.22,820.00 5550.22,820.00
             5715.97,820.00 5745.22,820.25 5758.59,821.88 Z
           M 2513.18,627.75
           C 2513.68,628.62 2645.93,801.12 2807.05,1011.12
             2807.05,1011.12 3099.92,1392.88 3099.92,1392.88
             3099.92,1392.88 3099.92,1729.00 3099.92,1729.00
             3099.92,1729.00 3099.92,2065.00 3099.92,2065.00
             3099.92,2065.00 3196.16,2065.00 3196.16,2065.00
             3196.16,2065.00 3292.41,2065.00 3292.41,2065.00
             3292.41,2065.00 3292.41,1729.00 3292.41,1729.00
             3292.41,1729.00 3292.41,1393.12 3292.41,1393.12
             3292.41,1393.12 3586.15,1010.12 3586.15,1010.12
             3747.77,799.50 3879.89,627.00 3879.89,626.75
             3879.89,626.50 3823.77,626.25 3755.15,626.25
             3755.15,626.25 3630.28,626.25 3630.28,626.25
             3630.28,626.25 3413.66,908.75 3413.66,908.75
             3294.41,1064.12 3196.66,1191.25 3196.16,1191.25
             3195.79,1191.25 3098.04,1064.12 2978.79,908.75
             2978.79,908.75 2762.17,626.25 2762.17,626.25
             2762.17,626.25 2637.18,626.25 2637.18,626.25
             2539.93,626.25 2512.43,626.62 2513.18,627.75 Z
           M 1251.47,337.50
           C 1242.09,361.25 1218.59,449.62 1206.97,505.00
             1179.34,636.75 1168.09,755.25 1161.22,986.88
             1157.22,1119.00 1156.47,1134.50 1153.59,1142.12
             1152.47,1145.25 1152.22,1145.38 1151.09,1143.37
             1148.47,1138.75 1143.34,1111.50 1130.72,1035.00
             1123.47,991.37 1115.59,945.25 1113.09,932.50
             1102.22,876.62 1093.60,851.62 1086.60,855.75
             1083.60,857.50 1077.97,868.62 1074.97,879.38
             1063.10,920.50 1048.85,1020.12 1046.60,1076.88
             1045.97,1094.25 1046.10,1097.50 1047.97,1101.00
             1050.47,1106.00 1057.47,1110.50 1080.85,1122.37
             1109.72,1137.25 1117.59,1146.12 1122.47,1170.12
             1126.97,1191.50 1125.34,1228.00 1119.22,1248.75
             1114.84,1263.75 1106.84,1274.75 1098.97,1276.62
             1094.22,1277.75 1084.85,1274.25 1072.97,1266.75
             1055.85,1255.87 1047.47,1252.25 1040.47,1252.75
             1031.97,1253.25 1029.47,1257.00 1028.85,1270.00
             1027.47,1300.75 1047.72,1340.50 1069.72,1350.38
             1073.85,1352.25 1078.22,1353.00 1084.47,1353.00
             1091.97,1353.00 1094.60,1352.37 1101.97,1348.88
             1113.84,1343.12 1130.97,1325.62 1144.72,1305.25
             1150.47,1296.88 1155.59,1290.00 1156.34,1290.00
             1157.97,1290.00 1157.84,1299.25 1155.34,1342.50
             1154.22,1363.50 1153.72,1382.25 1154.22,1384.12
             1155.34,1388.62 1159.72,1390.38 1174.22,1392.37
             1196.34,1395.38 1204.72,1400.87 1216.72,1420.62
             1223.34,1431.38 1241.97,1467.37 1248.59,1482.25
             1248.59,1482.25 1252.72,1491.38 1252.72,1491.38
             1252.72,1491.38 1261.97,1471.62 1261.97,1471.62
             1274.22,1445.62 1286.21,1423.75 1294.84,1411.75
             1303.96,1399.00 1309.59,1396.00 1331.21,1392.37
             1339.84,1390.87 1347.84,1389.25 1349.09,1388.62
             1350.96,1387.62 1351.21,1385.50 1351.21,1373.50
             1351.21,1365.75 1350.34,1345.25 1349.21,1327.75
             1347.34,1297.00 1347.46,1289.12 1349.96,1290.62
             1350.59,1291.00 1355.96,1298.50 1362.09,1307.12
             1374.09,1324.38 1389.84,1341.38 1398.71,1346.50
             1420.09,1358.88 1439.46,1354.50 1455.21,1333.75
             1462.96,1323.62 1468.84,1311.50 1473.08,1296.88
             1478.83,1277.37 1477.58,1256.00 1470.58,1253.25
             1466.59,1251.75 1457.96,1252.62 1452.71,1255.00
             1449.71,1256.38 1441.59,1261.00 1434.59,1265.38
             1413.34,1278.75 1406.34,1279.87 1397.71,1270.87
             1379.84,1252.37 1373.96,1185.75 1387.59,1154.00
             1393.21,1140.87 1402.46,1133.37 1431.09,1118.88
             1444.34,1112.00 1452.34,1107.12 1454.96,1104.25
             1454.96,1104.25 1458.71,1099.87 1458.71,1099.87
             1458.71,1099.87 1458.71,1083.37 1458.71,1083.37
             1458.71,1038.75 1445.46,938.25 1433.21,889.38
             1426.84,864.50 1420.34,852.37 1414.96,855.62
             1412.59,857.12 1407.71,868.12 1404.46,879.50
             1397.09,904.75 1388.84,947.88 1374.34,1037.88
             1361.46,1117.50 1356.46,1142.62 1353.59,1144.50
             1349.96,1146.75 1348.09,1120.12 1345.59,1031.88
             1338.21,769.50 1327.96,650.62 1301.71,520.62
             1288.96,457.75 1269.47,382.25 1255.84,343.12
             1252.97,335.00 1252.72,334.62 1251.47,337.50 Z
           M 1260.34,426.88
           C 1283.22,541.75 1302.96,679.62 1310.59,775.62
             1316.21,848.62 1320.71,953.62 1323.84,1088.12
             1325.46,1159.87 1326.09,1352.25 1324.59,1359.12
             1323.46,1364.62 1322.46,1365.12 1305.84,1368.75
             1283.72,1373.62 1276.72,1379.25 1261.72,1404.62
             1257.09,1412.37 1253.22,1418.75 1252.97,1418.75
             1252.72,1418.75 1252.47,1188.25 1252.47,906.50
             1252.47,620.50 1252.97,395.25 1253.59,396.25
             1254.22,397.25 1257.22,411.00 1260.34,426.88 Z
           M 895.98,1.88
           C 894.85,3.75 883.60,47.00 876.98,74.38
             852.98,175.25 831.23,292.38 815.60,405.00
             800.23,516.12 790.60,652.75 784.98,836.37
             783.10,895.87 781.23,1061.75 782.35,1065.87
             783.10,1068.75 784.48,1069.50 794.35,1072.12
             810.10,1076.25 830.85,1086.75 844.98,1097.62
             851.48,1102.62 865.73,1115.50 876.48,1126.00
             876.48,1126.00 896.23,1145.38 896.23,1145.38
             896.23,1145.38 914.73,1127.25 914.73,1127.25
             951.35,1091.75 970.97,1079.12 1001.85,1071.25
             1001.85,1071.25 1010.60,1069.00 1010.60,1069.00
             1010.60,1069.00 1010.97,1043.00 1010.97,1043.00
             1011.47,1013.00 1009.22,876.62 1007.47,819.38
             1001.60,638.75 991.85,507.25 975.47,392.50
             957.85,268.12 932.85,138.75 907.48,40.62
             898.23,4.88 896.98,0.37 895.98,1.88 Z
           M 898.73,67.12
           C 900.73,74.50 913.10,135.37 918.60,165.62
             938.35,273.25 959.60,418.87 968.10,504.38
             981.10,635.62 989.97,829.50 989.97,983.87
             989.97,983.87 989.97,1032.12 989.97,1032.12
             989.97,1032.12 984.72,1033.62 984.72,1033.62
             973.60,1036.88 954.72,1048.88 921.10,1073.88
             908.23,1083.50 897.48,1091.25 896.98,1091.25
             896.60,1091.25 896.23,859.75 896.23,576.88
             896.23,294.00 896.48,62.50 896.85,62.50
             897.10,62.50 897.98,64.62 898.73,67.12 Z
           M 1606.83,6.88
           C 1602.96,20.37 1590.21,71.37 1583.83,98.75
             1561.58,194.75 1539.46,319.00 1525.71,423.75
             1507.33,563.62 1495.96,773.87 1495.71,979.87
             1495.71,979.87 1495.58,1069.12 1495.58,1069.12
             1495.58,1069.12 1506.83,1072.12 1506.83,1072.12
             1521.83,1076.12 1543.08,1086.62 1556.21,1096.38
             1561.96,1100.75 1576.21,1113.50 1587.71,1124.87
             1587.71,1124.87 1608.71,1145.25 1608.71,1145.25
             1608.71,1145.25 1627.33,1127.25 1627.33,1127.25
             1663.83,1091.75 1683.45,1079.12 1714.33,1071.25
             1714.33,1071.25 1723.08,1069.00 1723.08,1069.00
             1723.08,1069.00 1722.83,993.62 1722.83,993.62
             1722.45,877.75 1717.70,725.00 1711.83,636.88
             1702.70,502.25 1696.20,441.50 1679.20,333.75
             1662.70,228.75 1643.08,131.50 1621.08,45.00
             1616.33,26.13 1611.71,8.12 1610.71,5.00
             1610.71,5.00 1609.08,-0.62 1609.08,-0.62
             1609.08,-0.62 1606.83,6.88 1606.83,6.88 Z
           M 1616.71,91.88
           C 1639.58,199.00 1669.70,393.63 1680.58,503.75
             1693.70,637.50 1702.45,827.50 1702.45,981.25
             1702.45,981.25 1702.45,1031.88 1702.45,1031.88
             1702.45,1031.88 1695.95,1034.25 1695.95,1034.25
             1683.20,1038.75 1662.95,1051.75 1629.96,1076.62
             1620.08,1084.12 1611.21,1090.62 1610.33,1090.87
             1608.96,1091.38 1608.71,992.00 1608.83,576.12
             1608.83,268.12 1609.33,61.62 1609.96,63.12
             1610.58,64.50 1613.71,77.38 1616.71,91.88 Z"/>
</svg>
